<svg width="94" height="97" viewBox="0 0 94 97" fill="none" xmlns="http://www.w3.org/2000/svg">
<path d="M47 0C37.7043 0 28.6173 2.84447 20.8882 8.17372C13.1591 13.503 7.135 21.0776 3.57768 29.9398C0.0203644 38.8021 -0.910392 48.5538 0.903113 57.9619C2.71662 67.3699 7.19293 76.0118 13.766 82.7947C20.3391 89.5775 28.7137 94.1967 37.8308 96.0681C46.9479 97.9394 56.398 96.979 64.9861 93.3081C73.5743 89.6373 80.9146 83.4209 86.0791 75.4451C91.2435 67.4694 94 58.0924 94 48.5C93.9868 35.6412 89.0308 23.3129 80.2195 14.2203C71.4081 5.12774 59.4611 0.0135792 47 0ZM81.5812 68.7487H66.3875L62.2027 62.7982L67.9105 45.646L74.6893 43.3655L86.5478 52.7531C85.9867 58.383 84.2952 63.8306 81.5812 68.7487ZM7.46579 52.7531L19.3017 43.3702L26.0805 45.6506L31.7883 62.8028L27.6125 68.7487H12.4189C9.70166 63.8313 8.0071 58.3837 7.44319 52.7531H7.46579ZM11.985 29.1373L14.4751 37.8113L7.55165 43.2629C8.16547 38.3166 9.6544 33.5286 11.9443 29.1373H11.985ZM38.4135 59.6923L33.2344 44.1397L47 34.3744L60.7656 44.1397L55.5865 59.6923H38.4135ZM79.5701 37.8113L82.0602 29.1373C84.3501 33.5286 85.8391 38.3166 86.4529 43.2629L79.5701 37.8113ZM76.7682 21.312L72.4704 36.2724L65.6599 38.5528L50.6154 27.8828V20.6172L63.7618 11.2902C68.7134 13.6798 73.1382 17.0904 76.7637 21.312H76.7682ZM55.1663 8.3336L47 14.1256L38.8338 8.3336C44.2196 7.17083 49.7804 7.17083 55.1663 8.3336ZM30.2382 11.2902L43.3846 20.6172V27.8828L28.3446 38.5528L21.5342 36.2724L17.2364 21.312C20.8618 17.0904 25.2866 13.6798 30.2382 11.2902ZM17.6928 76.2103H26.8985L30.1388 85.6631C25.4334 83.3781 21.2057 80.1671 17.6928 76.2103ZM38.8654 88.6664L33.4966 73.0811L37.6678 67.1538H56.3322L60.5035 73.0811L55.1572 88.6664C49.7775 89.8298 44.2225 89.8298 38.8428 88.6664H38.8654ZM63.8839 85.6631L67.1241 76.2103H76.3298C72.8103 80.1695 68.5747 83.3807 63.8613 85.6631H63.8839Z" fill="#777777"/>
</svg>
