<svg width="73" height="69" viewBox="0 0 73 69" fill="none" xmlns="http://www.w3.org/2000/svg">
<path d="M73 0V47.9167C73 51.475 71.5832 54.8876 69.0614 57.4037C66.5395 59.9198 63.1191 61.3333 59.5526 61.3333C55.9862 61.3333 52.5658 59.9198 50.0439 57.4037C47.522 54.8876 46.1053 51.475 46.1053 47.9167C46.1053 44.3583 47.522 40.9458 50.0439 38.4297C52.5658 35.9135 55.9862 34.5 59.5526 34.5C61.6274 34.5 63.5868 34.96 65.3158 35.8033V13.3017L26.8947 21.4667V55.5833C26.8947 59.1417 25.478 62.5542 22.9561 65.0704C20.4342 67.5865 17.0138 69 13.4474 69C9.8809 69 6.46051 67.5865 3.93864 65.0704C1.41677 62.5542 0 59.1417 0 55.5833C0 52.025 1.41677 48.6124 3.93864 46.0963C6.46051 43.5802 9.8809 42.1667 13.4474 42.1667C15.5221 42.1667 17.4816 42.6267 19.2105 43.47V11.5L73 0Z" fill="#777777"/>
</svg>
